<?xml version="1.0" standalone="no"?>
<!DOCTYPE svg PUBLIC "-//W3C//DTD SVG 20010904//EN"
 "http://www.w3.org/TR/2001/REC-SVG-20010904/DTD/svg10.dtd">
<svg version="1.0" xmlns="http://www.w3.org/2000/svg"
 width="64.000000pt" height="64.000000pt" viewBox="0 0 64.000000 64.000000"
 preserveAspectRatio="xMidYMid meet">

<g transform="translate(0.000000,64.000000) scale(0.100000,-0.100000)"
fill="#000000" stroke="none">
<path d="M240 621 c-86 -28 -159 -90 -201 -171 -20 -37 -24 -60 -24 -130 0
-73 4 -92 27 -135 32 -60 87 -114 148 -146 37 -20 60 -24 130 -24 70 0 93 4
130 24 61 32 116 86 148 146 23 43 27 62 27 135 0 70 -4 93 -24 130 -56 108
-151 171 -266 176 -38 2 -81 0 -95 -5z m171 -28 c108 -34 199 -159 199 -273 0
-149 -141 -290 -290 -290 -149 0 -290 141 -290 290 0 73 30 141 90 200 84 85
179 109 291 73z"/>
<path d="M270 423 c0 -4 21 -29 47 -55 l47 -48 -49 -50 c-27 -27 -46 -53 -42
-57 4 -4 33 19 65 50 l57 57 -55 55 c-51 52 -70 65 -70 48z"/>
</g>
</svg>
